<svg width="112" height="24" viewBox="0 0 112 24" fill="none" xmlns="http://www.w3.org/2000/svg">
<path d="M45.5233 24.0011H32.6346C31.3253 24.0011 31.2931 24.0011 31.2599 24C28.5237 23.972 27.2366 22.7105 26.9425 20.6417L26.9126 20.3928C26.9104 20.3827 26.9104 20.3715 26.9093 20.3615L25.0918 5.53187C25.0918 5.35659 25.0585 5.25276 24.9198 5.25276C24.8155 5.25276 24.7445 5.3231 24.7112 5.46154L20.3662 21.0626C19.8791 22.8456 18.4866 23.7209 16.82 23.7209C15.1534 23.7209 13.7265 22.8802 13.3093 21.1653L8.96428 5.46154C8.92989 5.28849 8.85998 5.25276 8.78897 5.25276C8.68578 5.25276 8.58038 5.3231 8.58038 5.49615L5.93961 24.0011H0.793457L3.95904 3.74669C4.37624 1.29946 6.0772 0.00439453 8.44279 0.00439453C10.5299 0.00439453 12.3007 0.914294 12.8566 3.18959L16.7867 17.8785C16.7867 17.9846 16.82 17.9846 16.82 17.9846C16.8544 17.9846 16.8888 17.9846 16.8888 17.8785L20.749 3.29565C21.3381 1.02036 23.1467 0.00551206 25.2671 0.00551206C26.0627 0.00551206 26.7772 0.160695 27.3919 0.464366C28.5814 1.05049 29.3836 2.19373 29.6121 3.85275L31.6038 17.758C31.6138 17.8149 31.6238 17.8707 31.6349 17.9265V17.931C31.646 17.9746 31.6626 18.0337 31.6826 18.0951C31.7004 18.1476 31.7159 18.1889 31.7292 18.2179C31.7292 18.2179 31.7525 18.2704 31.7802 18.3206C32.1187 18.947 32.7345 19.1781 32.7345 19.1781C32.8465 19.2194 33.0107 19.2674 33.2227 19.2808H42.9879L43.2553 20.1561C43.7713 21.8129 44.5302 23.0956 45.5244 24.0011H45.5233Z" fill="#081644"/>
<path d="M58.7432 15.3377C58.7432 10.681 62.1085 6.83936 67.0604 6.83936C72.0124 6.83936 75.0859 10.6163 75.0859 15.0128V16.3804H63.177C63.501 18.5296 65.1509 19.9619 67.4488 19.9619C69.1964 19.9619 70.6521 19.1157 71.3966 17.6174L74.9239 19.4082C73.5325 22.3065 70.8785 23.9666 67.481 23.9666C62.4968 23.9666 58.7432 20.4822 58.7432 15.3377ZM70.5223 13.8081C70.3281 12.1469 68.9689 10.8775 67.0272 10.8775C65.0854 10.8775 63.694 12.1804 63.37 13.8081H70.5223Z" fill="#081644"/>
<path d="M75.797 15.5003C75.797 10.4864 79.2278 6.96963 84.2108 6.96963C85.8286 6.96963 87.382 7.55576 88.547 8.50027L88.5792 0.00195312H93.175V15.5014C93.175 20.3858 89.4857 23.9997 84.4694 23.9997C79.453 23.9997 75.7959 20.157 75.7959 15.5014L75.797 15.5003ZM88.5803 15.5003C88.5803 13.2206 86.8327 11.3327 84.4705 11.3327C82.1082 11.3327 80.3928 13.2217 80.3928 15.5003C80.3928 17.779 82.1082 19.6356 84.4705 19.6356C86.8327 19.6356 88.5803 17.779 88.5803 15.5003Z" fill="#081644"/>
<path d="M94.3726 15.4358C94.3726 10.8127 98.1262 6.9375 103.046 6.9375C107.966 6.9375 111.752 10.5849 111.752 15.4358V24H107.383V21.6555C106.25 23.0879 104.503 23.9676 102.303 23.9676C97.6424 23.9676 94.3737 20.1248 94.3737 15.4369L94.3726 15.4358ZM107.155 15.4682C107.155 13.1884 105.407 11.3005 103.045 11.3005C100.683 11.3005 98.9673 13.1895 98.9673 15.4682C98.9673 17.7468 100.683 19.6358 103.045 19.6358C105.407 19.6358 107.155 17.7468 107.155 15.4682Z" fill="#081644"/>
<path d="M56.1464 0.00111753L50.7994 18.2001C50.6607 18.6534 50.4532 18.899 50.1048 18.899C49.7564 18.899 49.5156 18.6545 49.3758 18.2001L43.9933 0.00111753H38.7861L44.6757 19.2842L44.7933 19.6671C45.6965 22.5654 47.3631 23.9989 50.0715 23.9989C50.3622 23.9989 50.6407 23.9822 50.907 23.9476C53.1283 23.6751 54.543 22.255 55.3475 19.6671L61.3535 0H56.1464V0.00111753Z" fill="#081644"/>
</svg>
